<svg width="1098" height="869" viewBox="0 0 1098 869" fill="none" xmlns="http://www.w3.org/2000/svg">
<g clip-path="url(#clip0_1_51)">
<path d="M167.691 214.057C146.794 243.332 144.476 295.009 162.394 331.889C180.524 369.276 214.948 388.822 251.331 382.263C262.774 380.2 263.495 379.828 273.64 372.243C290.192 359.868 297.972 346.227 298.961 327.508C300.161 309.297 295.679 292.836 284.429 273.113C278.95 263.558 275.038 258.325 264.469 246.416C231.618 209.38 208.414 194.598 189.448 198.623C182.672 200.026 172.582 207.238 167.691 214.057ZM196.202 211.22C203.562 211.711 209.291 214.253 219.92 221.789C231.401 230.02 244.422 242.759 259.035 260.301C281.82 287.882 290.58 314.296 284.147 336.419C281.091 347.028 275.693 354.726 266.296 361.752C259.995 366.463 257.247 367.685 249.404 369.22C232.28 372.368 213.459 368.126 199.501 357.918C189.752 350.89 177.457 334.445 171.93 321.263C160.957 294.34 160.744 258.873 171.634 234.25C176.317 223.59 178.562 220.58 185.53 215.204C189.828 211.824 191.936 211.08 196.202 211.22Z" fill="#22C55E"/>
<path d="M251.305 152.21C242.318 169.583 249.772 195.807 276.002 237.793C296.194 270.144 317.554 287.803 344.105 293.923C361.992 298.03 377.864 294.32 394.202 282.105C404.24 274.6 404.828 273.828 410.017 263.622C420.047 243.637 420.883 220.038 412.327 199.465C393.197 153.17 332.495 122.972 280.452 133.747C267.889 136.314 255.503 144.242 251.305 152.21ZM288.355 145.652C316.467 141.614 350.666 151.506 373.971 170.208C385.051 179.238 397.346 195.683 401.329 207.022C407.171 223.298 405.915 242.549 398.052 258.084C394.361 265.172 392.411 267.462 386.111 272.173C356.878 293.862 320.206 279.993 290.858 236.509C278.166 217.53 269.63 201.437 264.984 188.097C260.762 175.77 259.945 169.556 261.69 162.092C262.87 157.214 263.565 156.361 270.398 151.918C276.377 148.114 280.193 146.76 288.355 145.652Z" fill="#22C55E"/>
<path d="M140.373 398.629C134.17 409.927 134.166 429.74 140.381 446.736C148.109 467.761 174.652 497.028 193.386 505.163C214.999 514.475 236.043 511.894 255.585 497.283C275.874 482.114 280.006 465.373 269.537 440.237C260.849 419.264 244.684 404.546 218.993 394.454C193.861 384.443 173.201 380.412 160.903 383.114C153.248 384.675 144.251 391.568 140.373 398.629ZM166.111 395.868C176.46 394.124 205.649 401.768 224.941 411.317C249.749 423.567 266.958 452.82 260.423 471.69C258.173 478.7 250.134 486.875 241.167 491.581C220.964 502.191 201.396 498.508 181.13 480.531C164.405 465.732 152.248 446.354 149.499 430.43C146.328 410.825 152.32 398.354 166.111 395.868Z" fill="#22C55E"/>
<path d="M436.414 177.128C430.344 188.159 428.366 209.116 430.858 236.053C433.297 263.364 442.814 283.218 460.393 297.378C481.354 314.503 499.139 315.356 519.215 300.347C538.33 286.055 546.946 266.628 544.341 243.104C542.318 223.475 521.223 188.803 503.243 175.442C488.699 164.674 469.695 159.072 457.104 161.826C449.234 163.548 440.078 170.227 436.414 177.128ZM463.644 174.583C485.166 173.309 509.776 193.532 524.13 224.087C535.64 248.611 533.637 268.422 517.745 284.798C510.694 292.067 500.579 297.465 493.219 297.641C473.191 298.464 450.162 273.896 445.349 246.529C443.499 235.593 442.465 213.724 443.308 203.272C445.097 184.288 451.537 175.311 463.644 174.583Z" fill="#22C55E"/>
<path d="M320.823 330.474C301.168 349.165 292.164 378.538 293.3 420.806C293.982 445.767 292.54 464.992 289.268 477.76C283.93 498.232 284.221 517.326 290.274 535.442C294.867 549.156 308.413 566.829 320.508 574.768C347.894 592.916 382.537 591.154 413.795 569.948C432.481 557.31 444.265 541.674 455.666 514.171C459.012 506.176 462.302 499.221 463.05 498.662C463.797 498.103 471.079 497.154 479.373 496.447C509.19 493.798 520.77 489.469 542.234 473.422C556.437 462.803 558.306 461.072 564.026 452.468C579.18 429.984 582.95 405.856 574.771 382.67C569.912 368.823 555.487 349.975 544.138 342.811C527.487 332.119 519.784 330.054 477.898 325.244C470.406 324.353 453.211 320.727 439.616 317.24C426.021 313.753 408.587 309.807 400.963 308.515C377.075 304.399 355.818 307.14 339.431 316.396C329.903 321.688 330.543 321.209 320.823 330.474ZM357.527 323.01C368.359 319.906 386.733 319.32 399.823 321.687C406.061 322.683 422.642 326.601 436.797 330.169C450.951 333.737 469.079 337.498 476.944 338.443C508.885 342.198 516.403 343.569 524.984 347.475C536.256 352.532 545.579 359.88 552.764 369.491C575.439 399.818 568.074 438.287 534.943 463.224C524.905 470.729 510.841 477.748 501.078 480.053C493.368 481.988 468.831 484.351 468.113 483.39C467.873 483.07 469.375 477.285 471.465 470.728C473.555 464.171 476.32 451.616 477.694 442.764C479.713 430.101 479.775 424.394 478.028 415.378C476.203 405.589 475.14 403.054 470.217 396.246C463.591 387.383 456.797 382.973 446.347 380.797C426.86 376.554 409.059 386.367 401.243 405.529L398.111 413.364L391.177 413.887C362.374 416.11 346.093 443.099 357.093 469.836C361.185 479.762 367.469 485.718 379.673 491.577C390.386 496.553 415.82 500.511 433.634 499.845C447.128 499.412 447.128 499.412 446.136 502.983C444.448 508.741 433.349 530.191 427.763 538.529C420.761 548.759 405.942 561.003 393.721 566.478C373.974 575.248 352.772 576.283 337.956 569.381C305.766 554.159 292.268 521.632 301.928 481.78C305.631 466.692 307.182 446.054 306.527 420.906C305.52 381.038 312.114 358.461 330.33 339.182C335.057 334.149 350.164 325.185 357.527 323.01ZM390.677 427.246C394.171 426.798 399.157 427.233 401.716 427.983C407.9 430.019 410.196 427.969 411.356 419.278C412.838 409.013 415.913 403.551 422.961 398.282C432.678 391.016 445.105 391.382 455.199 399.317C463.403 405.836 467.171 418.002 465.947 433.733C465.187 442.959 457.433 474.227 454.116 481.369L451.949 485.819L443.015 486.339C418.426 487.742 395.524 484.721 382.52 478.461C374.765 474.769 368.485 466.146 367.031 457.744C364.494 442.327 374.567 429.302 390.677 427.246Z" fill="#22C55E"/>
</g>
<path d="M673 137.183C654.235 152.785 643.776 186.056 649.143 213.045C654.561 240.4 673.749 258.835 698.737 260.594C706.596 261.147 707.133 261.024 715.096 257.766C728.088 252.45 735.549 244.856 739.436 232.829C743.373 221.167 743.283 209.704 739.319 194.994C737.38 187.863 735.72 183.807 730.851 174.299C715.721 144.733 703.065 131.26 689.934 130.737C685.249 130.528 677.386 133.552 673 137.183ZM692.183 140.061C696.923 141.601 700.24 144.206 705.904 150.875C712.008 158.139 718.34 168.594 724.886 182.441C735.053 204.18 736.227 222.835 728.182 236.177C724.343 242.579 719.472 246.698 712.096 249.716C707.15 251.74 705.137 252.081 699.73 251.78C687.958 250.992 676.353 245.11 668.968 236.148C663.792 229.955 658.576 217.207 657.233 207.706C654.696 188.353 660.692 165.219 672.092 150.987C677.006 144.821 678.998 143.233 684.497 140.886C687.9 139.397 689.41 139.263 692.183 140.061Z" fill="#22C55E"/>
<path d="M738.518 110.763C729.621 120.588 729.971 138.903 739.904 170.595C747.545 195.01 758.494 210.052 774.843 218.438C785.859 224.078 796.907 224.293 809.732 219.046C817.612 215.822 818.131 215.416 823.298 209.63C833.331 198.277 837.961 183.046 835.911 168.23C831.378 134.908 796.806 105.179 760.822 103.57C752.14 103.16 742.649 106.27 738.518 110.763ZM763.943 112.633C783.072 114.663 803.782 126.774 815.826 142.817C821.528 150.535 826.744 163.283 827.393 171.328C828.408 182.896 824.254 195.226 816.412 204.04C812.766 208.044 811.091 209.213 806.145 211.236C783.228 220.516 761.584 205.405 749.866 172.221C744.828 157.756 742.016 145.861 741.278 136.402C740.643 127.675 741.182 123.492 743.617 118.92C745.235 115.939 745.838 115.499 751.086 113.738C755.664 112.251 758.4 112.002 763.943 112.633Z" fill="#22C55E"/>
<path d="M623.16 252.861C617.138 259.19 613.708 272.094 614.842 284.193C616.272 299.167 628.61 322.627 639.486 331.03C652.044 340.678 666.288 342.484 681.627 336.208C697.554 329.692 703.159 319.474 700.643 301.369C698.576 286.269 690.524 274.005 675.426 263.174C660.681 252.488 647.833 246.438 639.304 246.159C634.014 245.907 626.923 248.905 623.16 252.861ZM640.511 255.329C647.598 255.908 665.412 265.725 676.409 275.142C690.554 287.232 696.776 309.136 689.227 320.342C686.539 324.535 679.854 328.526 673.161 330.105C658.08 333.666 645.888 328.024 635.712 312.957C627.307 300.547 622.689 285.911 623.641 275.084C624.954 261.791 631.04 254.662 640.511 255.329Z" fill="#22C55E"/>
<path d="M855.567 157.675C849.679 163.853 844.757 177.173 841.731 195.13C838.605 213.321 841.41 227.829 850.485 239.964C861.265 254.592 872.778 258.095 888.536 251.648C903.541 245.509 912.55 234.285 914.912 218.532C916.981 205.413 909.15 179.335 899.673 167.654C892.001 158.23 880.51 151.431 871.779 151.138C866.322 150.955 859.163 153.787 855.567 157.675ZM873.86 160.53C888.191 163.268 900.827 180.518 904.951 202.797C908.255 220.677 903.514 233.246 890.263 241.278C884.382 244.843 876.817 246.682 871.961 245.577C858.688 242.793 847.84 222.975 849.419 204.354C850.098 196.925 853.204 182.511 855.564 175.844C860.021 163.777 865.796 158.998 873.86 160.53Z" fill="#22C55E"/>
<path d="M753.256 238.384C737.136 247.299 726.151 264.936 719.584 292.653C715.713 309.022 711.442 321.304 707.088 329.077C700.047 341.525 696.934 354.008 697.769 366.81C698.407 376.502 704.231 390.258 710.787 397.433C725.602 413.792 748.619 418.387 772.782 409.757C787.219 404.623 797.649 396.394 809.882 380.372C813.458 375.719 816.819 371.735 817.406 371.495C817.992 371.255 822.93 371.844 828.491 372.758C848.498 375.975 856.838 375.075 873.687 368.182C884.835 363.62 886.36 362.803 891.599 358.147C905.423 346.016 912.069 330.927 910.718 314.471C909.928 304.648 903.731 289.981 897.53 283.435C888.463 273.711 883.77 271.09 857.141 261.014C852.383 259.192 841.737 253.98 833.428 249.456C825.118 244.931 814.371 239.472 809.595 237.367C794.647 230.727 780.236 228.988 767.891 232.3C760.729 234.167 761.231 233.961 753.256 238.384ZM778.611 239.607C786.249 239.381 798.397 242.045 806.569 245.756C810.487 247.439 820.68 252.739 829.343 257.409C838.005 262.079 849.24 267.533 854.233 269.452C874.524 277.192 879.216 279.331 884.166 283.298C890.681 288.459 895.522 294.79 898.57 302.24C908.189 325.75 896.706 349.583 870.671 360.332C862.791 363.556 852.357 365.796 845.557 365.679C840.167 365.661 823.672 363.133 823.367 362.388C823.265 362.139 825.251 358.621 827.755 354.697C830.26 350.773 834.245 343.055 836.677 337.518C840.191 329.605 841.219 325.899 841.634 319.737C842.131 313.059 841.872 311.232 839.822 305.983C837.011 299.112 833.32 295.113 826.846 291.964C814.804 285.971 801.435 289.411 792.996 300.595L789.587 305.179L784.951 304.37C765.682 301.044 750.339 315.922 752.926 335.158C753.891 342.301 756.981 347.222 763.969 353.06C770.131 358.077 786.121 364.87 797.916 367.389C806.838 369.344 806.838 369.344 805.57 371.506C803.466 374.975 792.479 387.105 787.374 391.61C781.014 397.112 769.18 402.63 760.221 404.17C745.757 406.608 731.678 403.768 723.159 396.817C704.687 381.567 701.465 358.146 714.693 333.793C719.73 324.58 724.318 311.397 728.238 294.91C734.475 268.778 742.704 255.168 757.982 245.631C761.952 243.137 773.407 239.803 778.611 239.607ZM782.312 312.988C784.68 313.275 787.874 314.384 789.422 315.297C793.124 317.648 794.984 316.694 797.248 311.226C799.995 304.786 802.956 301.739 808.488 299.475C816.116 296.354 824.2 298.652 829.445 305.493C833.696 311.099 834.062 319.646 830.538 329.689C828.443 335.571 817.951 354.65 814.54 358.751L812.35 361.29L806.402 360.148C790.039 356.986 775.547 351.222 768.104 344.99C763.659 341.301 761.033 334.644 761.533 328.931C762.537 318.469 771.394 311.656 782.312 312.988Z" fill="#22C55E"/>
<path d="M522.963 593.411C513.212 615.783 518.822 650.205 535.747 671.903C552.882 693.903 578.308 701.748 601.42 692.088C608.69 689.051 609.114 688.699 614.763 682.21C623.98 671.622 627.232 661.484 625.298 648.993C623.574 636.806 618.341 626.607 608.189 615.248C603.251 609.749 599.946 606.872 591.323 600.566C564.519 580.955 547.158 574.608 535.193 580.043C530.914 581.961 525.249 588.197 522.963 593.411ZM541.393 587.361C546.319 586.606 550.452 587.442 558.51 590.855C567.227 594.6 577.583 601.093 589.654 610.521C608.507 625.371 617.94 641.508 616.75 657.042C616.198 664.487 613.698 670.356 608.465 676.367C604.957 680.398 603.311 681.607 598.346 683.769C587.476 688.355 574.465 688.316 563.84 683.63C556.433 680.424 546.044 671.38 540.574 663.497C529.61 647.348 524.569 623.988 528.356 606.151C529.974 598.434 531.04 596.12 534.897 591.553C537.268 588.693 538.557 587.894 541.393 587.361Z" fill="#22C55E"/>
<path d="M569.615 540.364C566.084 553.139 574.628 569.343 597.745 593.189C615.545 611.565 632.086 620.081 650.46 620.225C662.835 620.311 672.801 615.538 681.899 605.086C687.489 598.665 687.77 598.07 689.786 590.578C693.646 575.927 690.937 560.24 682.446 547.926C663.42 520.197 619.175 509.178 586.307 523.914C578.367 527.449 571.286 534.494 569.615 540.364ZM593.168 530.607C611.17 523.823 635.113 525.334 653.082 534.252C661.644 538.583 672.033 547.627 676.23 554.522C682.335 564.4 684.166 577.281 681.122 588.679C679.665 593.895 678.694 595.692 675.185 599.722C658.884 618.312 632.758 614.541 607.375 590.164C596.374 579.507 588.515 570.145 583.605 562.027C579.115 554.516 577.716 550.538 577.837 545.359C577.942 541.968 578.283 541.305 582.18 537.372C585.602 533.987 587.933 532.534 593.168 530.607Z" fill="#22C55E"/>
<path d="M530.431 719.148C527.897 727.509 530.632 740.577 537.083 750.875C545.09 763.609 566.657 779.021 580.148 781.64C595.703 784.613 609.239 779.826 620.121 767.325C631.419 754.346 631.834 742.699 621.45 727.656C612.816 715.097 600.111 707.76 581.756 704.87C563.782 701.951 549.586 702.321 541.84 705.906C537.002 708.058 532.015 713.923 530.431 719.148ZM547.041 713.554C553.632 710.887 573.957 711.649 588.013 715.119C606.083 719.562 621.486 736.333 619.779 749.736C619.262 754.689 615.084 761.259 609.815 765.678C597.944 775.637 584.517 776.076 568.654 767.191C555.568 759.882 544.865 748.884 540.849 738.784C536.048 726.319 538.28 717.215 547.041 713.554Z" fill="#22C55E"/>
<path d="M695.261 529.663C692.778 537.828 694.368 551.94 699.735 569.34C705.119 586.995 714.145 598.695 727.706 605.457C743.91 613.678 755.769 611.634 766.949 598.791C777.593 586.564 780.597 572.488 775.627 557.355C771.578 544.705 752.862 524.93 739.146 518.754C728.057 513.784 714.737 512.875 706.805 516.537C701.848 518.826 696.726 524.574 695.261 529.663ZM712.886 523.992C726.918 519.996 745.958 529.727 759.656 547.775C770.643 562.262 772.058 575.622 763.83 588.752C760.179 594.58 754.248 599.623 749.413 600.818C736.305 604.297 717.707 591.469 710.749 574.125C708.017 567.183 704.313 552.912 703.424 545.895C701.982 533.112 704.993 526.247 712.886 523.992Z" fill="#22C55E"/>
<path d="M640.14 647.745C629.747 662.953 627.862 683.646 634.452 711.357C638.352 727.72 640.056 740.61 639.66 749.511C638.965 763.796 641.795 776.346 648.294 787.407C653.221 795.778 664.606 805.449 673.687 808.911C694.274 816.866 716.9 810.626 734.606 792.057C745.195 780.983 750.814 768.943 754.541 749.132C755.645 743.369 756.856 738.299 757.272 737.821C757.688 737.343 762.364 735.65 767.742 733.967C787.06 727.849 794.107 723.297 806.059 709.566C813.968 700.481 814.963 699.065 817.55 692.552C824.448 675.501 823.602 659.036 815 644.943C809.879 636.522 797.751 626.206 789.269 623.145C776.8 618.534 771.429 618.301 743.113 621.269C738.043 621.78 726.191 621.909 716.735 621.602C707.278 621.295 695.223 621.248 690.011 621.514C673.673 622.301 660.019 627.225 650.479 635.732C644.92 640.619 645.277 640.209 640.14 647.745ZM663.34 637.441C670.061 633.806 682.111 630.726 691.079 630.368C695.335 630.111 706.822 630.264 716.66 630.542C726.497 630.821 738.984 630.644 744.307 630.114C765.912 627.908 771.065 627.71 777.269 629.029C785.409 630.712 792.579 634.191 798.65 639.476C817.81 656.154 818.263 682.606 799.837 703.909C794.247 710.33 785.933 717.021 779.806 719.973C774.983 722.379 759.111 727.535 758.504 727.006C758.302 726.83 758.494 722.795 758.968 718.164C759.442 713.533 759.533 704.847 759.216 698.808C758.799 690.16 758.052 686.387 755.653 680.697C753.095 674.508 752.043 672.992 747.853 669.223C742.253 664.349 737.159 662.436 729.96 662.533C716.509 662.592 706.113 671.674 703.601 685.457L702.616 691.084L698.111 692.445C679.403 698.134 672.384 718.321 683.34 734.342C687.413 740.289 692.385 743.296 701.251 745.371C709.011 747.082 726.348 745.964 738.017 742.913C746.865 740.649 746.865 740.649 746.704 743.151C746.384 747.195 742.021 762.97 739.486 769.288C736.277 777.061 728.186 787.309 720.874 792.711C709.05 801.39 695.196 805.181 684.461 802.801C661.107 797.48 647.702 778.006 648.573 750.306C648.933 739.812 647.105 725.974 643.198 709.484C637.024 683.337 638.258 667.48 647.619 652.094C650.045 648.082 658.779 639.955 663.34 637.441ZM699.627 701.329C701.871 700.522 705.223 700.077 707.016 700.197C711.379 700.633 712.612 698.945 712.177 693.042C711.737 686.055 713.012 682.002 716.937 677.493C722.348 671.277 730.602 669.697 738.363 673.45C744.679 676.547 748.848 684.019 750.214 694.573C750.986 700.769 750.188 722.529 748.985 727.725L748.169 730.978L742.343 732.63C726.304 737.16 710.768 738.525 701.318 736.303C695.689 735.005 690.351 730.239 688.23 724.91C684.426 715.114 689.276 705.047 699.627 701.329Z" fill="#22C55E"/>
<path d="M922.907 529.891C907.317 537.835 894.672 559.909 894.069 580.221C893.443 600.805 903.849 617.376 920.982 622.98C926.371 624.742 926.765 624.747 932.839 623.791C942.75 622.231 949.172 618.074 953.816 610.113C958.438 602.423 960.219 594.176 959.824 582.924C959.62 577.467 959.117 574.266 957.253 566.593C951.466 542.734 944.814 530.861 935.746 528.205C932.515 527.241 926.548 528.046 922.907 529.891ZM935.813 535.291C938.869 537.22 940.761 539.666 943.636 545.44C946.721 551.716 949.452 560.323 951.786 571.403C955.373 588.78 953.189 602.379 945.434 610.562C941.728 614.492 937.67 616.604 932.044 617.49C928.271 618.084 926.813 617.978 923.093 616.823C915.015 614.212 907.873 607.972 904.169 600.254C901.558 594.908 899.974 584.848 900.567 577.792C901.914 563.455 909.816 547.885 920.052 539.646C924.469 536.072 926.114 535.278 930.323 534.548C932.935 534.07 934.009 534.236 935.813 535.291Z" fill="#22C55E"/>
<path d="M972.822 522.302C965.04 527.811 962.337 541.023 964.159 565.506C965.555 584.365 970.766 597.068 980.81 605.93C987.581 611.894 995.246 613.967 1005.03 612.427C1011.04 611.481 1011.47 611.28 1016 608.023C1024.82 601.613 1030.5 591.481 1031.45 580.486C1033.66 555.771 1014.35 528.418 989.525 521.011C983.54 519.209 976.425 519.793 972.822 522.302ZM990.242 528.062C1003.25 532.843 1015.73 545.137 1021.54 558.749C1024.28 565.281 1025.86 575.341 1025.02 581.231C1023.86 589.714 1018.98 597.846 1012.1 602.812C1008.91 605.054 1007.56 605.603 1003.79 606.196C986.32 608.879 973.667 594.268 970.84 568.404C969.657 557.143 969.612 548.112 970.619 541.192C971.581 534.815 972.63 531.905 975.063 529.045C976.671 527.185 977.162 526.974 981.103 526.622C984.533 526.349 986.48 526.645 990.242 528.062Z" fill="#22C55E"/>
<path d="M869.552 604.298C864.336 607.796 859.869 616.466 858.712 625.351C857.299 636.352 862.123 655.341 868.35 663.264C875.55 672.374 885.187 676.145 896.888 674.303C909.037 672.391 914.588 666.028 915.749 652.59C916.738 641.388 913.1 631.183 904.32 620.783C895.763 610.548 887.782 603.972 881.882 602.29C878.236 601.19 872.812 602.111 869.552 604.298ZM881.248 609.084C886.094 610.731 896.93 620.875 903.079 629.547C910.992 640.686 911.803 657.495 904.738 664.231C902.19 666.774 896.888 668.479 891.969 668.45C880.886 668.387 873.296 662.218 868.628 649.631C864.768 639.26 863.905 627.948 866.311 620.339C869.365 611.022 874.754 606.96 881.248 609.084Z" fill="#22C55E"/>
<path d="M1046.85 576.321C1041.75 579.735 1036.18 588.445 1031.18 600.813C1026.07 613.332 1025.69 624.237 1030.07 634.528C1035.22 646.904 1042.69 651.42 1054.71 649.527C1066.15 647.726 1074.24 641.231 1078.42 630.331C1081.97 621.269 1080.71 601.183 1075.99 591.149C1072.16 583.049 1065.24 576.171 1059.2 574.444C1055.43 573.364 1049.98 574.155 1046.85 576.321ZM1059.14 581.55C1068.69 586.005 1074.72 600.587 1074.01 617.301C1073.43 630.714 1068.11 638.916 1057.58 642.381C1052.91 643.92 1047.34 643.926 1044.13 642.289C1035.33 637.984 1030.96 621.869 1035.05 608.772C1036.72 603.556 1041.21 593.745 1043.93 589.368C1048.97 581.477 1053.77 579.048 1059.14 581.55Z" fill="#22C55E"/>
<path d="M962.554 616.503C949.885 620.104 939.39 630.86 930.352 649.622C925.02 660.704 920.067 668.78 915.781 673.606C908.87 681.321 904.692 689.744 903.213 699.081C902.098 706.152 903.943 717.042 907.358 723.332C915.051 737.653 930.353 744.951 948.582 742.952C959.471 741.773 968.065 737.676 979.169 728.296C982.411 725.576 985.394 723.299 985.842 723.229C986.289 723.158 989.636 724.439 993.364 726.061C1006.79 731.847 1012.75 732.65 1025.6 730.627C1034.11 729.288 1035.3 728.966 1039.7 726.533C1051.29 720.224 1058.35 710.543 1060.05 698.492C1061.09 691.301 1059.13 679.693 1055.86 673.915C1051.1 665.358 1048.25 662.66 1031.32 650.799C1028.29 648.664 1021.71 643.073 1016.65 638.38C1011.59 633.688 1004.97 627.9 1001.99 625.559C992.635 618.194 982.871 614.443 973.734 614.676C968.442 614.773 968.825 614.712 962.554 616.503ZM980.03 621.785C985.389 622.95 993.427 626.973 998.526 631.058C1000.99 632.946 1007.24 638.523 1012.52 643.381C1017.81 648.239 1024.76 654.107 1027.93 656.353C1040.83 665.436 1043.75 667.787 1046.57 671.495C1050.28 676.333 1052.63 681.72 1053.56 687.599C1056.48 706.152 1044.64 721.27 1024.76 724.466C1018.75 725.412 1011.12 725.208 1006.4 723.943C1002.64 722.994 991.555 718.313 991.462 717.725C991.432 717.529 993.382 715.347 995.759 712.965C998.136 710.582 1002.16 705.732 1004.74 702.179C1008.46 697.107 1009.78 694.625 1011.06 690.272C1012.48 685.563 1012.59 684.207 1012.01 680.081C1011.16 674.659 1009.23 671.147 1005.22 667.761C997.793 661.365 987.921 661.513 980.24 668.078L977.126 670.777L974.025 669.391C961.131 663.655 948.043 671.673 946.749 685.935C946.273 691.232 947.634 695.302 951.565 700.709C955.053 705.381 965.104 713.037 972.919 716.895C978.823 719.848 978.823 719.848 977.591 721.18C975.566 723.307 965.956 730.108 961.673 732.456C956.355 735.301 947.22 737.208 940.727 736.757C930.254 735.996 920.899 731.51 916.079 725.039C905.66 710.88 907.183 693.503 920.322 678.313C925.316 672.573 930.635 663.903 936.021 652.746C944.574 635.065 952.499 626.721 964.682 622.527C967.851 621.426 976.371 621.022 980.03 621.785ZM970.799 675.12C972.403 675.738 974.451 677.09 975.382 678.014C977.584 680.345 979.034 679.983 981.492 676.45C984.443 672.303 986.998 670.629 991.218 669.965C997.036 669.049 1002.3 672.103 1004.86 677.927C1006.92 682.69 1005.8 688.892 1001.72 695.491C999.316 699.351 988.933 711.228 985.896 713.58L983.96 715.023L979.999 713.17C969.103 708.056 959.93 701.4 955.746 695.632C953.241 692.21 952.483 686.974 953.751 682.959C956.134 675.621 963.404 672.268 970.799 675.12Z" fill="#22C55E"/>
<defs>
<clipPath id="clip0_1_51">
<rect width="502.667" height="490.667" fill="white" transform="translate(0.839386 301.512) rotate(-36.7836)"/>
</clipPath>
</defs>
</svg>
